<svg width="156" height="136" viewBox="0 0 156 136" fill="none" xmlns="http://www.w3.org/2000/svg">
<g clip-path="url(#clip0_1547_1686)">
<path d="M12.683 131.049L8.27539 119.061H12.0887L14.3173 125.856L15.0106 128.234H15.3078L15.704 126.098L17.5859 119.061H21.944L23.9249 126.098L24.3211 128.234H24.7668L25.5097 125.807L27.5897 119.061H31.2049L30.7592 120.711L26.8468 131.049H22.4887L20.2106 123.672V122.41H19.8144L19.5173 123.672L17.0411 131.049H12.683ZM36.4544 131.049C35.7241 131.075 34.9968 130.943 34.3249 130.661C33.8786 130.508 33.5073 130.196 33.2849 129.787C33.08 129.444 32.9455 129.065 32.8887 128.671C32.8652 128.315 32.8652 127.959 32.8887 127.603V122.749C32.8653 122.426 32.8653 122.102 32.8887 121.779C32.9525 121.371 33.0865 120.977 33.2849 120.614C33.5184 120.202 33.884 119.878 34.3249 119.692C34.9968 119.41 35.7241 119.277 36.4544 119.303H42.2982C43.2518 119.264 44.2055 119.379 45.1211 119.643C45.7155 119.818 46.2255 120.197 46.5573 120.711C46.8836 121.341 47.0372 122.044 47.003 122.749V126.196H42.0506H38.0392H36.1573V127.652C36.1573 128.38 36.603 128.719 37.4944 128.719H41.704H44.3287H46.2106L47.3002 130.418C47.3002 131.001 45.4678 131.292 41.9021 131.292L36.4544 131.049ZM36.1573 123.914H43.6354V122.167C43.6983 121.928 43.6983 121.678 43.6354 121.439C43.6354 121.439 43.1897 121.342 42.7935 121.342H40.763H37.4944C36.603 121.342 36.1573 121.73 36.1573 122.41V123.914ZM50.024 131.049V113.867H53.3421V119.158L56.0659 118.915H59.7306H61.1173C61.828 118.871 62.5396 118.987 63.1973 119.255C63.6239 119.44 63.9856 119.744 64.2373 120.128C64.4634 120.48 64.5993 120.879 64.6335 121.293C64.6557 121.649 64.6557 122.006 64.6335 122.361V127.215C64.6532 127.538 64.6532 127.862 64.6335 128.186C64.5921 128.598 64.4567 128.996 64.2373 129.35C63.9908 129.751 63.629 130.072 63.1973 130.273C62.5447 130.56 61.8321 130.693 61.1173 130.661H59.7306C58.2449 130.661 56.9078 130.661 55.7687 130.661L52.9954 130.418L52.2525 130.807L50.024 131.049ZM54.184 128.719H60.0773C60.9687 128.719 61.4144 128.38 61.4144 127.652V122.167C61.433 121.872 61.3454 121.58 61.1668 121.342C60.8383 121.152 60.4574 121.067 60.0773 121.099H58.7402H55.6202H53.3421V127.409C53.2874 127.632 53.2874 127.865 53.3421 128.088C53.4485 128.205 53.578 128.3 53.7226 128.367C53.8673 128.433 54.0242 128.471 54.184 128.477V128.719ZM71.0221 131.049C70.3083 131.068 69.5987 130.936 68.9421 130.661C68.4957 130.508 68.1244 130.196 67.9021 129.787C67.6972 129.444 67.5626 129.065 67.5059 128.671C67.4823 128.315 67.4823 127.959 67.5059 127.603V122.749C67.4824 122.426 67.4824 122.102 67.5059 121.779C67.5697 121.371 67.7036 120.977 67.9021 120.614C68.1356 120.202 68.5012 119.878 68.9421 119.692C69.5987 119.417 70.3083 119.284 71.0221 119.303H76.9154C77.8528 119.261 78.7908 119.376 79.6887 119.643C80.2974 119.815 80.8239 120.194 81.1744 120.711C81.4549 121.354 81.5901 122.05 81.5706 122.749V126.196H76.6182H72.6068H70.5763V127.652C70.5763 128.38 70.9725 128.719 71.864 128.719H76.123H78.6982H80.5802L81.6697 130.418C81.6697 131.001 79.8868 131.292 76.3211 131.292L71.0221 131.049ZM70.7744 124.157H78.2525V122.41C78.3201 122.171 78.3201 121.92 78.2525 121.682C78.2525 121.682 77.9554 121.439 77.5592 121.439H75.5287H72.2106C71.3687 121.439 70.923 121.827 70.923 122.507L70.7744 124.157ZM88.8506 131.049L83.2544 119.061H87.0678L90.1878 126.196L90.9306 128.137H91.1783L91.8716 126.196L95.0906 118.818H98.7554L98.3592 120.468L93.4068 130.807L88.8506 131.049ZM104.005 131.049C103.291 131.068 102.582 130.936 101.925 130.661C101.473 130.496 101.09 130.189 100.835 129.787C100.652 129.434 100.519 129.059 100.439 128.671C100.439 128.283 100.439 127.943 100.439 127.603V122.749C100.439 122.458 100.439 122.118 100.439 121.779C100.526 121.377 100.659 120.986 100.835 120.614C101.102 120.211 101.48 119.891 101.925 119.692C102.582 119.417 103.291 119.284 104.005 119.303H109.849C110.802 119.264 111.756 119.379 112.672 119.643C113.275 119.8 113.791 120.184 114.108 120.711C114.434 121.341 114.588 122.044 114.553 122.749V126.196H109.601H105.59H103.51V127.652C103.51 128.38 103.955 128.719 104.847 128.719H109.106H111.681H113.563L114.653 130.418C114.653 131.001 112.87 131.292 109.304 131.292L104.005 131.049ZM103.708 124.157H111.235V122.41C111.303 122.171 111.303 121.92 111.235 121.682C111.235 121.682 110.938 121.439 110.542 121.439H108.462H105.193C104.302 121.439 103.856 121.827 103.856 122.507L103.708 124.157ZM117.574 131.049V118.818H119.803L120.843 119.352C121.33 119.1 121.845 118.904 122.378 118.769C123.069 118.683 123.768 118.683 124.458 118.769C125.528 118.747 126.596 118.878 127.628 119.158C128.203 119.35 128.765 119.577 129.312 119.837L128.371 122.118L127.281 121.342L125.548 120.856C124.807 120.78 124.06 120.78 123.319 120.856H123.022C122.715 120.812 122.401 120.832 122.102 120.915C121.803 120.999 121.526 121.144 121.289 121.342C120.989 121.857 120.851 122.448 120.893 123.041V131.049H117.574ZM132.432 136.243C131.613 136.251 130.797 136.153 130.005 135.951C129.488 135.839 128.988 135.66 128.519 135.418L129.361 133.039L130.649 133.476C131.296 133.637 131.962 133.719 132.63 133.719H132.927C133.732 133.73 134.518 133.473 135.155 132.991C135.81 132.477 136.322 131.809 136.641 131.049H135.205L129.906 119.061H133.719L136.839 126.196L137.533 128.137H137.83L138.672 126.196L141.841 118.818H145.555L145.11 120.468L143.921 122.846C143.475 123.72 143.03 124.691 142.584 125.613C142.138 126.535 141.643 127.506 141.148 128.428L140.009 130.807C139.517 131.778 138.937 132.704 138.275 133.573C137.684 134.313 136.942 134.925 136.096 135.369C135.211 135.82 134.221 136.038 133.224 136L132.432 136.243Z" fill="#FAFCE3"/>
<path d="M63.4943 30.0958C63.2409 29.1524 62.6758 28.3178 61.8874 27.7222C61.099 27.1266 60.1316 26.8037 59.1362 26.8037C58.1408 26.8037 57.1735 27.1266 56.3851 27.7222C55.5967 28.3178 55.0316 29.1524 54.7782 30.0958L52.5496 39.1236C52.2961 40.067 51.7311 40.9016 50.9427 41.4972C50.1543 42.0927 49.1869 42.4157 48.1915 42.4157C47.1961 42.4157 46.2287 42.0927 45.4403 41.4972C44.6519 40.9016 44.0869 40.067 43.8334 39.1236L33.9286 2.96371C33.7515 2.14464 33.2989 1.40758 32.6433 0.870714C31.9878 0.333846 31.1673 0.0282648 30.3134 0.00296443H3.76863C3.15633 -0.028051 2.54557 0.088002 1.98946 0.341031C1.43336 0.59406 0.94874 0.976404 0.577754 1.45481C0.206769 1.93322 -0.0393513 2.49321 -0.139203 3.08609C-0.239055 3.67896 -0.189614 4.28676 0.00481792 4.85664L28.9762 99.5033C29.218 100.271 29.6942 100.948 30.3406 101.443C30.987 101.938 31.7726 102.226 32.5915 102.27H58.3934C59.2121 102.245 60.0009 101.963 60.6431 101.465C61.2853 100.966 61.7467 100.279 61.9591 99.5033L71.8639 63.0522C72.0126 62.2825 72.0126 61.4922 71.8639 60.7225L63.4943 30.0958Z" fill="#FAFCE3"/>
<path d="M154.666 46.9837C153.628 45.3122 152.733 43.5588 151.992 41.7418C150.605 36.8881 149.565 32.4227 148.377 27.6176C147.911 25.2126 147.215 22.8562 146.297 20.5797C145.103 18.8398 143.743 17.2146 142.236 15.7261C141.459 14.7942 140.998 13.6478 140.918 12.447C140.838 11.2461 141.143 10.0508 141.79 9.02798C142.291 8.49113 142.569 7.78987 142.569 7.06225C142.569 6.33462 142.291 5.63336 141.79 5.09651C140.552 3.49479 139.809 1.60186 138.026 0.582587C136.889 -0.062226 135.547 -0.269805 134.262 0.000146158C133.149 0.0858425 132.086 0.490411 131.206 1.16353C130.325 1.83665 129.666 2.74862 129.31 3.78601C128.646 5.15802 128.527 6.72292 128.976 8.17625C129.424 9.62959 130.409 10.8674 131.737 11.649C132.331 11.9402 132.925 12.377 133.817 12.8139L129.904 13.8331C129.231 13.955 128.603 14.2477 128.082 14.6821C127.56 15.1165 127.164 15.6772 126.933 16.3085C126.058 18.0671 124.942 19.7001 123.615 21.1622C121.683 23.6376 121.683 23.6376 123.169 26.0159C119.45 31.5669 115.293 36.8248 110.739 41.7418C109.996 42.4698 111.333 42.4698 112.076 41.7418C112.819 41.0137 112.522 41.1593 112.819 41.3049C113.101 41.7411 113.255 42.2448 113.264 42.761C113.113 43.5795 113.113 44.4179 113.264 45.2364C113.562 45.8189 114.156 45.6732 114.453 45.2364C114.453 45.5276 115.394 43.0523 115.394 42.761C114.8 39.8488 114.948 40.2857 116.434 38.5383C118.514 36.063 123.615 33.6847 126.042 31.2578C127.084 29.9897 127.996 28.6241 128.765 27.1807C129.508 29.9473 130.251 32.4227 130.895 34.8981C130.982 35.1333 130.982 35.3909 130.895 35.6261C128.542 40.0246 127.351 44.9303 127.428 49.8959C126.982 53.3906 126.834 56.8852 126.24 60.2828C125.768 62.3209 125.001 64.2823 123.962 66.1072C123.367 67.2721 119.009 67.8545 117.821 67.2721C115.146 66.1072 114.057 66.1558 112.868 67.8545L95.733 2.96089C95.5479 2.14569 95.0931 1.41332 94.4392 0.877827C93.7853 0.34233 92.9691 0.0337544 92.1177 0.000146158H65.1272C64.531 0.00382111 63.9439 0.144485 63.4132 0.410842C62.8824 0.677199 62.4228 1.06182 62.0712 1.53383C61.7197 2.00584 61.4859 2.55207 61.3888 3.12865C61.2917 3.70524 61.3339 4.29611 61.512 4.85382L87.9082 99.5005C88.1561 100.265 88.634 100.938 89.2791 101.432C89.9243 101.926 90.7065 102.217 91.5234 102.267H116.731C117.695 102.243 118.613 101.856 119.295 101.188C119.977 100.52 120.371 99.6202 120.396 98.6754C120.508 98.5296 120.592 98.3652 120.643 98.19C120.643 97.0251 121.089 96.2971 121.238 95.2778C121.286 93.4349 121.585 91.6066 122.129 89.8417C123.22 87.8729 124.164 85.829 124.952 83.7261C125.909 80.0758 127.066 76.4788 128.419 72.9509C128.844 72.3588 129.48 71.9435 130.202 71.786L137.878 70.4755C138.805 70.3881 139.681 70.0181 140.383 69.4173C141.085 68.8166 141.577 68.0155 141.79 67.1265C143.665 61.9975 144.815 56.6411 145.207 51.2064C145.154 50.6155 145.237 50.0204 145.452 49.4656C145.666 48.9108 146.006 48.4108 146.445 48.003C146.704 47.5952 146.904 47.1542 147.04 46.6925C147.04 45.382 146.445 41.8388 146.148 38.5383C148.15 41.6787 149.606 45.1231 150.457 48.7311C151.108 50.683 152.373 52.3823 154.072 53.5847C154.369 53.5847 154.666 53.5847 154.666 52.7111C154.488 51.7722 154.24 50.8475 153.923 49.9445C153.626 49.2164 153.923 48.4884 153.923 48.4884C153.923 48.4884 156.003 51.6918 156.152 50.6725C155.725 49.4174 155.229 48.186 154.666 46.9837ZM115.84 73.3877C118.217 71.786 118.662 72.8053 118.811 73.0965C118.96 73.3877 119.405 74.1158 119.554 74.2614C119.191 75.0624 118.893 75.8901 118.662 76.7368C118.217 78.4841 117.92 80.2314 117.622 81.9787C117.622 82.6582 117.622 84.5997 117.276 85.9102L114.304 74.3585C114.797 74.0069 115.31 73.6828 115.84 73.3877Z" fill="#FAFCE3"/>
</g>
<defs>
<clipPath id="clip0_1547_1686">
<rect width="156" height="136" fill="white"/>
</clipPath>
</defs>
</svg>
